<?xml version="1.0" encoding="utf-8"?>
<svg xmlns="http://www.w3.org/2000/svg" width="22px" height="22px" viewBox="0 0 200 200" version="1.1" xmlns:bx="https://boxy-svg.com"><defs><bx:export><bx:file format="svg" path="mrc.svg" width="22" height="22"/></bx:export></defs><path d="M 42.789 20.741 C 46.248 20.937, 51.648 20.936, 54.789 20.738 C 57.930 20.540, 55.100 20.380, 48.500 20.382 C 41.900 20.384, 39.330 20.546, 42.789 20.741 M 34.345 22.543 C 34.019 23.392, 33.976 24.310, 34.249 24.583 C 34.523 24.856, 34.986 24.161, 35.279 23.040 C 35.903 20.657, 35.210 20.289, 34.345 22.543 M 64.250 22.080 C 65.475 22.794, 66.052 24.509, 66.175 27.800 L 66.349 32.500 66.736 28.176 C 67.118 23.895, 65.846 20.971, 63.628 21.030 C 63.007 21.047, 63.288 21.519, 64.250 22.080 M 140.768 21.725 C 142.565 21.947, 145.265 21.943, 146.768 21.715 C 148.271 21.486, 146.800 21.304, 143.500 21.310 C 140.200 21.315, 138.971 21.502, 140.768 21.725 M 153 22.393 C 153 22.609, 153.698 23.054, 154.552 23.382 C 155.442 23.723, 155.843 23.555, 155.493 22.989 C 154.906 22.038, 153 21.583, 153 22.393 M 156.158 27 C 156.158 28.375, 156.385 28.938, 156.662 28.250 C 156.940 27.563, 156.940 26.438, 156.662 25.750 C 156.385 25.063, 156.158 25.625, 156.158 27 M 122.079 28.583 C 122.127 29.748, 122.364 29.985, 122.683 29.188 C 122.972 28.466, 122.936 27.603, 122.604 27.271 C 122.272 26.939, 122.036 27.529, 122.079 28.583 M 32.079 32.583 C 32.127 33.748, 32.364 33.985, 32.683 33.188 C 32.972 32.466, 32.936 31.603, 32.604 31.271 C 32.272 30.939, 32.036 31.529, 32.079 32.583 M 154.079 38.583 C 154.127 39.748, 154.364 39.985, 154.683 39.188 C 154.972 38.466, 154.936 37.603, 154.604 37.271 C 154.272 36.939, 154.036 37.529, 154.079 38.583 M 64.252 42.500 C 64.263 44.700, 64.468 45.482, 64.707 44.238 C 64.946 42.994, 64.937 41.194, 64.687 40.238 C 64.437 39.282, 64.241 40.300, 64.252 42.500 M 30.079 43.583 C 30.127 44.748, 30.364 44.985, 30.683 44.188 C 30.972 43.466, 30.936 42.603, 30.604 42.271 C 30.272 41.939, 30.036 42.529, 30.079 43.583 M 153.079 43.583 C 153.127 44.748, 153.364 44.985, 153.683 44.188 C 153.972 43.466, 153.936 42.603, 153.604 42.271 C 153.272 41.939, 153.036 42.529, 153.079 43.583 M 66.813 46.683 C 67.534 46.972, 68.397 46.936, 68.729 46.604 C 69.061 46.272, 68.471 46.036, 67.417 46.079 C 66.252 46.127, 66.015 46.364, 66.813 46.683 M 107.872 48.750 C 106.678 50.273, 106.695 50.350, 108 49.346 C 108.825 48.711, 110.625 47.985, 112 47.732 L 114.500 47.272 111.872 47.136 C 110.424 47.061, 108.629 47.785, 107.872 48.750 M 152.158 49 C 152.158 50.375, 152.385 50.938, 152.662 50.250 C 152.940 49.563, 152.940 48.438, 152.662 47.750 C 152.385 47.063, 152.158 47.625, 152.158 49 M 73.079 50.583 C 73.127 51.748, 73.364 51.985, 73.683 51.188 C 73.972 50.466, 73.936 49.603, 73.604 49.271 C 73.272 48.939, 73.036 49.529, 73.079 50.583 M 106.079 52.583 C 106.127 53.748, 106.364 53.985, 106.683 53.188 C 106.972 52.466, 106.936 51.603, 106.604 51.271 C 106.272 50.939, 106.036 51.529, 106.079 52.583 M 28.079 54.583 C 28.127 55.748, 28.364 55.985, 28.683 55.188 C 28.972 54.466, 28.936 53.603, 28.604 53.271 C 28.272 52.939, 28.036 53.529, 28.079 54.583 M 151.079 54.583 C 151.127 55.748, 151.364 55.985, 151.683 55.188 C 151.972 54.466, 151.936 53.603, 151.604 53.271 C 151.272 52.939, 151.036 53.529, 151.079 54.583 M 135.107 60.962 L 90.715 61.500 89 64 C 87.424 66.297, 87.346 69.263, 88.046 100.500 C 89.407 161.256, 90.217 179.936, 91.541 181.034 C 92.300 181.664, 109.187 182.271, 136.131 182.637 C 174.160 183.154, 179.746 183.037, 181.500 181.694 C 184.284 179.560, 185.063 164.271, 182.580 160.482 L 180.954 158 152.632 158 C 125.653 158, 124.225 157.906, 122.514 156.015 C 120.853 154.180, 120.772 152.400, 121.443 132.265 C 122.486 100.981, 123.472 90.099, 125.443 88.128 C 126.851 86.720, 130.448 86.478, 152.075 86.340 C 168.409 86.235, 177.534 85.802, 178.391 85.091 C 181.059 82.876, 186.397 69.569, 186.449 65 C 186.500 60.521, 186.484 60.500, 183 60.462 C 181.075 60.441, 159.523 60.666, 135.107 60.962 M 26.158 66 C 26.158 67.375, 26.385 67.938, 26.662 67.250 C 26.940 66.563, 26.940 65.438, 26.662 64.750 C 26.385 64.063, 26.158 64.625, 26.158 66 M 79.250 66.689 C 80.213 66.941, 81.787 66.941, 82.750 66.689 C 83.713 66.438, 82.925 66.232, 81 66.232 C 79.075 66.232, 78.287 66.438, 79.250 66.689 M 84.365 77.500 C 84.368 83, 84.536 85.122, 84.738 82.216 C 84.941 79.311, 84.939 74.811, 84.734 72.216 C 84.528 69.622, 84.363 72, 84.365 77.500 M 25.079 71.583 C 25.127 72.748, 25.364 72.985, 25.683 72.188 C 25.972 71.466, 25.936 70.603, 25.604 70.271 C 25.272 69.939, 25.036 70.529, 25.079 71.583 M 24.158 77 C 24.158 78.375, 24.385 78.938, 24.662 78.250 C 24.940 77.563, 24.940 76.438, 24.662 75.750 C 24.385 75.063, 24.158 75.625, 24.158 77 M 23.079 82.583 C 23.127 83.748, 23.364 83.985, 23.683 83.188 C 23.972 82.466, 23.936 81.603, 23.604 81.271 C 23.272 80.939, 23.036 81.529, 23.079 82.583 M 22.158 88 C 22.158 89.375, 22.385 89.938, 22.662 89.250 C 22.940 88.563, 22.940 87.438, 22.662 86.750 C 22.385 86.063, 22.158 86.625, 22.158 88 M 131.750 88.662 C 132.438 88.940, 133.563 88.940, 134.250 88.662 C 134.938 88.385, 134.375 88.158, 133 88.158 C 131.625 88.158, 131.063 88.385, 131.750 88.662 M 64.214 90.689 L 67.929 91.116 68.269 100.308 L 68.609 109.500 68.554 100 L 68.500 90.500 64.500 90.381 L 60.500 90.262 64.214 90.689 M 126.232 94 C 126.232 95.925, 126.438 96.713, 126.689 95.750 C 126.941 94.787, 126.941 93.213, 126.689 92.250 C 126.438 91.287, 126.232 92.075, 126.232 94 M 144.158 94 C 144.158 95.375, 144.385 95.938, 144.662 95.250 C 144.940 94.563, 144.940 93.438, 144.662 92.750 C 144.385 92.063, 144.158 92.625, 144.158 94 M 20.158 99 C 20.158 100.375, 20.385 100.938, 20.662 100.250 C 20.940 99.563, 20.940 98.438, 20.662 97.750 C 20.385 97.063, 20.158 97.625, 20.158 99 M 56.079 98.583 C 56.127 99.748, 56.364 99.985, 56.683 99.188 C 56.972 98.466, 56.936 97.603, 56.604 97.271 C 56.272 96.939, 56.036 97.529, 56.079 98.583 M 143.079 99.583 C 143.127 100.748, 143.364 100.985, 143.683 100.188 C 143.972 99.466, 143.936 98.603, 143.604 98.271 C 143.272 97.939, 143.036 98.529, 143.079 99.583 M 125.252 105.500 C 125.263 107.700, 125.468 108.482, 125.707 107.238 C 125.946 105.994, 125.937 104.194, 125.687 103.238 C 125.437 102.282, 125.241 103.300, 125.252 105.500 M 142.158 105 C 142.158 106.375, 142.385 106.938, 142.662 106.250 C 142.940 105.563, 142.940 104.438, 142.662 103.750 C 142.385 103.063, 142.158 103.625, 142.158 105 M 54.158 108 C 54.158 109.375, 54.385 109.938, 54.662 109.250 C 54.940 108.563, 54.940 107.438, 54.662 106.750 C 54.385 106.063, 54.158 106.625, 54.158 108 M 18.079 110.583 C 18.127 111.748, 18.364 111.985, 18.683 111.188 C 18.972 110.466, 18.936 109.603, 18.604 109.271 C 18.272 108.939, 18.036 109.529, 18.079 110.583 M 53.079 113.583 C 53.127 114.748, 53.364 114.985, 53.683 114.188 C 53.972 113.466, 53.936 112.603, 53.604 112.271 C 53.272 111.939, 53.036 112.529, 53.079 113.583 M 68.733 114.124 C 69.412 114.808, 70.219 115.115, 70.526 114.807 C 70.834 114.499, 70.279 113.940, 69.293 113.564 C 67.868 113.022, 67.753 113.136, 68.733 114.124 M 140.158 116 C 140.158 117.375, 140.385 117.938, 140.662 117.250 C 140.940 116.563, 140.940 115.438, 140.662 114.750 C 140.385 114.063, 140.158 114.625, 140.158 116 M 17.079 116.583 C 17.127 117.748, 17.364 117.985, 17.683 117.188 C 17.972 116.466, 17.936 115.603, 17.604 115.271 C 17.272 114.939, 17.036 115.529, 17.079 116.583 M 75.813 115.683 C 76.534 115.972, 77.397 115.936, 77.729 115.604 C 78.061 115.272, 77.471 115.036, 76.417 115.079 C 75.252 115.127, 75.015 115.364, 75.813 115.683 M 52.158 119 C 52.158 120.375, 52.385 120.938, 52.662 120.250 C 52.940 119.563, 52.940 118.438, 52.662 117.750 C 52.385 117.063, 52.158 117.625, 52.158 119 M 124.355 125.500 C 124.352 130.450, 124.521 132.601, 124.731 130.280 C 124.940 127.959, 124.943 123.909, 124.736 121.280 C 124.530 118.651, 124.358 120.550, 124.355 125.500 M 16.158 122 C 16.158 123.375, 16.385 123.938, 16.662 123.250 C 16.940 122.563, 16.940 121.438, 16.662 120.750 C 16.385 120.063, 16.158 120.625, 16.158 122 M 15.158 128 C 15.158 129.375, 15.385 129.938, 15.662 129.250 C 15.940 128.563, 15.940 127.438, 15.662 126.750 C 15.385 126.063, 15.158 126.625, 15.158 128 M 138.158 128 C 138.158 129.375, 138.385 129.938, 138.662 129.250 C 138.940 128.563, 138.940 127.438, 138.662 126.750 C 138.385 126.063, 138.158 126.625, 138.158 128 M 29.280 134.736 C 31.909 134.943, 35.959 134.940, 38.280 134.731 C 40.601 134.521, 38.450 134.352, 33.500 134.355 C 28.550 134.358, 26.651 134.530, 29.280 134.736" stroke="none" fill-rule="evenodd" style="fill-rule: evenodd; paint-order: fill; fill: rgb(255, 255, 255);" id="object-0"/><path d="M 34.973 23.572 C 33.063 28.594, 16.801 119.796, 16.628 126.447 C 16.446 133.477, 18.020 134.128, 34.341 133.777 C 50.159 133.436, 49.919 133.640, 52.399 118.364 C 53.369 112.389, 55.072 103.541, 56.182 98.701 L 58.202 89.902 63.351 90.201 L 68.500 90.500 68.549 101.817 C 68.587 110.579, 68.925 113.341, 70.049 114.051 C 70.847 114.556, 74.537 114.976, 78.250 114.985 L 85 115 85 106.159 C 85 101.296, 84.707 90.545, 84.349 82.268 L 83.697 67.217 78.849 66.574 C 72.200 65.692, 70.821 63.455, 72.241 55.857 C 73.540 48.905, 72.907 47.005, 69.281 46.985 C 64.759 46.960, 63.676 45.722, 64.368 41.365 C 64.705 39.239, 65.276 34.392, 65.636 30.593 C 66.530 21.164, 66.250 21, 49.284 21 L 35.950 21 34.973 23.572 M 126.131 22.700 C 124.649 23.905, 123.250 27.146, 121.900 32.500 C 117.572 49.670, 118.468 48, 113.584 48 C 108.617 48, 107.697 48.849, 106.248 54.769 L 105.203 59.037 127.802 58.769 L 150.401 58.500 153.137 44.500 C 156.436 27.614, 156.605 24.383, 154.250 23.166 C 153.287 22.669, 147.065 21.956, 140.423 21.581 C 129.657 20.974, 128.105 21.095, 126.131 22.700 M 131.739 88.959 C 129.670 89.361, 127.794 89.873, 127.569 90.097 C 126.749 90.917, 125.007 113.774, 125.003 123.750 L 125 134 128.935 134 C 136.869 134, 137.412 133.366, 139.326 121.850 C 140.272 116.157, 141.930 106.550, 143.012 100.500 C 144.093 94.450, 144.983 89.162, 144.989 88.750 C 145.002 87.833, 136.883 87.962, 131.739 88.959" stroke="none" fill-rule="evenodd" style="fill: rgb(255, 255, 255);"/></svg>