<svg width="48" height="96" version="1.1" xmlns="http://www.w3.org/2000/svg" desc="Created with imagetracer.js version 1.2.6" ><path fill="rgb(0,0,0)" stroke="rgb(0,0,0)" stroke-width="1" opacity="0" d="M 0 0 L 48 0 L 48 46 L 0 46 L 0 0 Z " /><path fill="rgb(0,0,0)" stroke="rgb(0,0,0)" stroke-width="1" opacity="1" d="M 9.5 46 L 10.5 48 L 11.5 46 L 12.5 48 L 13.5 46 L 14.5 48 L 15.5 46 L 16.5 48 L 17.5 46 L 18.5 48 L 20.5 48 L 48 48 L 48 96 L 0 96 L 0 48 L 8.5 48 L 9.5 46 Z M 10 52 L 7 56 L 3 80 L 6 81 Q 11 82 13 80 L 14 70 L 16 70 L 16 76 L 21 77 L 21 92 L 44 92 Q 46 91 45 86 L 32 86 L 30 85 Q 28 80 33 81 L 35 75 L 35 69 L 43 69 L 45 66 L 45 62 L 37 62 L 38 58 L 38 53 L 29 53 L 28 57 L 28 59 L 25 59 L 25 62 L 21 62 L 21 64 L 20 63 L 18 63 L 18 59 L 16 59 L 17 55 Q 15 51 10 52 Z " /><path fill="rgb(174,190,249)" stroke="rgb(174,190,249)" stroke-width="1" opacity="1" d="M 2.5 46 L 9 47.5 L 0.5 48 L 0.5 47 L 2.5 46 Z " /><path fill="rgb(174,190,249)" stroke="rgb(174,190,249)" stroke-width="1" opacity="1" d="M 18 46 L 23.5 47 L 33 46.5 L 32.5 48 L 20.5 48 L 18 47.5 L 18 46 Z " /><path fill="rgb(174,190,249)" stroke="rgb(174,190,249)" stroke-width="1" opacity="1" d="M 38 46 L 48 46.5 L 40.5 48 L 38 47.5 L 38 46 Z " /><path fill="rgb(197,197,197)" stroke="rgb(197,197,197)" stroke-width="1" opacity="1" d="M 9.5 52 L 16 53 L 16 59 L 18 59 L 18 63 L 19.5 63 L 21 64.5 L 21 76 L 16 76 L 16 70 L 14 70 L 13 78.5 L 10.5 81 Q 5.1 81.6 3 80 L 7 55.5 L 9.5 52 Z " /><path fill="rgb(197,197,197)" stroke="rgb(197,197,197)" stroke-width="1" opacity="1" d="M 29 53 L 38 53 L 38 57.5 L 37 62 L 25.5 62 L 25 59 Q 28.8 60.5 28 57.5 L 29 53 Z " /><path fill="rgb(197,197,197)" stroke="rgb(197,197,197)" stroke-width="1" opacity="1" d="M 30 69 L 35 69 L 35 73.5 Q 32.7 74.7 34 79.5 L 32.5 81 L 29 79.5 L 30 78.5 L 30 69 Z " /><path fill="rgb(144,199,75)" stroke="rgb(144,199,75)" stroke-width="1" opacity="1" d="M 21 62 L 44.5 62 L 45 65.5 L 42.5 69 L 30 69 L 30 78.5 L 30 80.5 Q 29 85 31.5 86 L 44.5 86 Q 45.5 86 45 90.5 L 43.5 92 L 21 92 L 21 62 Z " /></svg>