<?xml version="1.0" encoding="utf-8"?>
<!DOCTYPE svg PUBLIC "-//W3C//DTD SVG 20010904//EN" "http://www.w3.org/TR/2001/REC-SVG-20010904/DTD/svg10.dtd">
<svg version="1.0" width="16.5pt" height="16.5pt" viewBox="0 0 16.5 16.5" preserveAspectRatio="xMidYMid meet" xmlns="http://www.w3.org/2000/svg">
  <g transform="translate(0,16.5)scale(.075,.075)" fill="#FFF">
    <path id="path1" d="M 70 -211 c 0 5 -11 12 -25 15 -16 4 -25 13 -25 26 0 11 -4 20 -10 20 -5 0 -10 18 -10 40 0 22 5 40 10 40 6 0 10 8 10 18 0 24 50 52 92 52 31 0 65 -16 96 -46 14 -15 16 -104 2 -104 -6 0 -10 -9 -10 -20 0 -13 -9 -22 -25 -26 -14 -3 -25 -10 -25 -15 0 -5 -18 -9 -40 -9 -22 0 -40 4 -40 9 z m 96 38 c 15 17 23 35 20 46 -2 11 0 30 6 42 8 19 7 27 -5 39 -9 9 -20 16 -25 16 -6 0 -12 6 -15 12 -2 7 -8 9 -13 5 -5 -4 -2 -13 6 -18 12 -8 12 -12 2 -16 -7 -2 -19 -12 -28 -20 -8 -8 -23 -13 -34 -10 -11 3 -25 -1 -31 -9 -10 -12 -8 -18 7 -30 14 -11 15 -17 6 -20 -19 -9 -14 -34 8 -34 10 0 25 -7 32 -15 19 -21 36 -18 64 12 z m -103 113 c 15 16 32 30 37 30 6 0 10 5 10 10 0 6 -9 10 -20 10 -11 0 -20 -4 -20 -10 0 -5 -7 -10 -15 -10 -8 0 -15 -9 -15 -20 0 -11 -4 -20 -10 -20 -6 0 -10 -4 -10 -10 0 -18 16 -11 43 20 z " />
  </g>
</svg>