<?xml version="1.0" encoding="UTF-8"?>
<svg id="SVG" xmlns="http://www.w3.org/2000/svg" viewBox="0 0 2048 2048">
  <defs>
    <style>
      .cls-1 {
        fill: #fff;
      }
    </style>
  </defs>
  <g id="con">
    <g>
      <path class="cls-1" d="M240.02,617.5c.16.12,4.58-8.4,5.75-9.68,1.9-1.86,3.8-3.72,5.7-5.58,112.01-125.2,253.64-169.89,417.15-149.93,110.67,13.51,221.13,27.23,332.88,27.12,108.06-.11,216.43,7.07,323.95-6.94,86.09-11.22,170.78-11.32,254.76,12.33,96.71,29.27,177.75,82.33,242.74,159.72,0,0,.01.01.02.02.26-.44,4.97,3.93,5.31,3.7,4.81-7.69-9.32-27.89-12.18-33.18-27.38-50.68-63.95-82.11-108.86-117.61-6.24-4.93-9.91-9.96-11.35-17.26-8.97-39.45-33.87-65.14-70.73-79.25-79.55-30.44-162.14-32.4-245.62-24.67-9.67.9-15.83,6.8-21.23,14.02-12.31,16.47-29.2,25.61-48.73,30.67-24.93,6.46-50.2,11-75.91,12.13-140.62,6.15-281.16.41-421.71-3.01-20.19-.49-40.38-3.43-60.44-6.18-19.26-2.65-39.71-9.38-48.59-25.81-9.37-17.34-22.32-20.61-37.66-21.36-75.13-3.64-149.86-1.32-223.66,15.72-44.38,10.25-72.8,37.89-86.19,79.71-4.75,14.84-11.86,24.79-23.39,33.49-33.77,25.48-63.3,56.12-85.62,92.06-1.72,2.4-5.59,10.07-7.31,12.48-1.54,2.07-2.15,5.1.91,7.31Z"/>
      <path class="cls-1" d="M1986.98,1266.88c-5.16-52.47-10.15-104.84-19.53-156.7-18.58-102.7-51.27-201.42-84.04-300.2-11.92-35.92-21.67-72.25-46.22-102.21-5.89-26.43-27.71-41.85-43.83-60.63-37.27-43.44-82.37-76.37-133.84-103.21-79.05-41.22-161.63-59.91-249.71-55.17-52.56,2.83-104.88,11.94-157.42,12.94-202.03,3.85-403.65,3.05-604.48-28.27-101.39-15.81-198.38,9.51-287.09,63.2-36.84,22.29-64.76,53.85-94.96,83.51-35.88,35.23-59.58,77.26-78.88,122.63-3.78,9.33-8.24,18.45-11.25,28.03-21.53,68.59-44.84,136.72-63.68,206.05-42.23,155.41-62.43,313.85-58.35,475.11.93,36.95,9.08,72.32,24.39,105.85,30.87,67.59,82.41,110.61,156.48,120.06,74.95,9.57,129.95-26.61,171.2-86.49,11.47-16.65,21.49-34.3,31.94-51.64,43.56-72.23,84.82-145.78,125.1-219.88,27.65-50.87,69.3-81.83,127.19-89.74,22.22-3.03,44.63-2.47,66.82-.92,44.06,3.08,83.99-6.54,120.26-32.42,22.04-15.72,47.35-21.74,74.66-21.28,50.7.86,101.42.85,152.13.77,27.85-.04,54.66,5.39,76.12,23.02,34.92,28.69,74.31,36.3,117.66,31.93,9.39-.95,18.91-.95,28.37-.86,64.33.65,115.22,25.86,148,82.68,16.84,29.2,32.3,59.2,48.78,88.61,39.24,70,73.04,143.13,118.46,209.57,50.12,73.32,137.21,97.51,218.06,60.88,81.97-37.13,120.82-105.32,130.96-191.01,8.43-71.29,3.72-142.71-3.32-214.23ZM708.16,835h-100.84v100.84h-107.57v-100.84h-100.84v-107.57h100.84v-100.84h107.57v100.84h100.84v107.57ZM986.96,811.65h-131.49v-60.88h131.49v60.88ZM1208.55,811.65h-131.49v-60.88h131.49v60.88ZM1414.92,835.6c-30.03,0-54.38-24.35-54.38-54.38s24.35-54.38,54.38-54.38,54.38,24.35,54.38,54.38-24.35,54.38-54.38,54.38ZM1536.07,956.74c-30.03,0-54.38-24.35-54.38-54.38s24.35-54.38,54.38-54.38,54.38,24.35,54.38,54.38-24.35,54.38-54.38,54.38ZM1536.07,714.45c-30.03,0-54.38-24.35-54.38-54.38s24.35-54.38,54.38-54.38,54.38,24.35,54.38,54.38-24.35,54.38-54.38,54.38ZM1657.21,835.6c-30.03,0-54.38-24.35-54.38-54.38s24.35-54.38,54.38-54.38,54.38,24.35,54.38,54.38-24.35,54.38-54.38,54.38Z"/>
    </g>
  </g>
</svg>