<?xml version="1.0" encoding="UTF-8"?>
<svg version="1.1" xmlns="http://www.w3.org/2000/svg" width="400" height="400">
<path d="M0 0 C132 0 264 0 400 0 C400 132 400 264 400 400 C268 400 136 400 0 400 C0 268 0 136 0 0 Z M126 52 C126 59.92 126 67.84 126 76 C109.83 76.33 93.66 76.66 77 77 C76.67 85.25 76.34 93.5 76 102 C67.75 102 59.5 102 51 102 C51 142.59 51 183.18 51 225 C59.25 225 67.5 225 76 225 C76 249.75 76 274.5 76 300 C84.25 300 92.5 300 101 300 C101 316.5 101 333 101 350 C109.25 350 117.5 350 126 350 C126 357.92 126 365.84 126 374 C174.84 374 223.68 374 274 374 C274 366.08 274 358.16 274 350 C282.25 350 290.5 350 299 350 C299 333.5 299 317 299 300 C307.25 300 315.5 300 324 300 C324 275.25 324 250.5 324 225 C332.25 225 340.5 225 349 225 C349 184.41 349 143.82 349 102 C337.12 101.505 337.12 101.505 325 101 C324.67 92.75 324.34 84.5 324 76 C307.5 76 291 76 274 76 C274 68.08 274 60.16 274 52 C225.16 52 176.32 52 126 52 Z " fill="#000000" transform="translate(0,0)"/>
</svg>
